Coordinates
version=1
nRows=7
nColumns=40
inDegrees=yes

Units are S.I. units (second, meters, Newtons, ...)
Angles are in degrees.

endheader
time	pelvis_tilt	pelvis_list	pelvis_rotation	pelvis_tx	pelvis_ty	pelvis_tz	hip_flexion_r	hip_adduction_r	hip_rotation_r	knee_angle_r	knee_angle_r_beta	ankle_angle_r	subtalar_angle_r	mtp_angle_r	hip_flexion_l	hip_adduction_l	hip_rotation_l	knee_angle_l	knee_angle_l_beta	ankle_angle_l	subtalar_angle_l	mtp_angle_l	lumbar_extension	lumbar_bending	lumbar_rotation	arm_flex_r	arm_add_r	arm_rot_r	elbow_flex_r	pro_sup_r	wrist_flex_r	wrist_dev_r	arm_flex_l	arm_add_l	arm_rot_l	elbow_flex_l	pro_sup_l	wrist_flex_l	wrist_dev_l
     35.90000000	     -6.23092800	     -4.68359060	    -11.13346079	      1.06985569	      0.92516922	      0.40397989	     27.51649424	     -3.65104165	     -3.65434125	     18.35190022	     18.35190022	      2.34464953	      7.77101947	      4.45320569	     12.68294350	     -3.93842635	    -10.48483235	     23.88542240	     23.88542240	     18.89446603	    -15.38894771	      4.46075421	    -11.01902455	      6.27052406	      1.31272783	    -23.88628684	    -10.40501448	     -8.59688492	     30.91069928	     45.88425165	      0.00000000	      0.00000000	     48.93370938	    -26.53650796	     -5.61669856	     60.74388417	     48.17778203	      0.00000000	      0.00000000
     35.92357143	     -6.35252227	     -4.36094182	    -11.48668935	      1.07014148	      0.92459707	      0.40628886	     27.28122928	     -3.83810825	     -4.53868449	     16.37132484	     16.37132484	      3.20889629	     10.63320320	     10.86923278	     12.13814135	     -3.72703756	    -11.01922442	     23.28661635	     23.28661635	     18.53309740	    -15.31117779	      2.97920293	    -10.81826282	      5.95148308	      1.08620474	    -23.73193821	    -10.49275158	     -7.16472315	     31.94105946	     45.75728512	      0.00000000	      0.00000000	     49.21893772	    -26.63705091	     -6.50128548	     61.98048263	     48.22661836	      0.00000000	      0.00000000
     35.94714286	     -6.41730465	     -4.08790535	    -11.71935720	      1.07074572	      0.92391296	      0.40885679	     26.83318815	     -3.84297867	     -4.69605999	     14.58007320	     14.58007320	      2.30661531	     11.85411727	     11.61087272	     11.62139118	     -3.54583805	    -11.34470023	     22.92347070	     22.92347070	     18.78298097	    -15.11538087	      2.84186362	    -10.63357400	      5.72865526	      1.09281792	    -23.31769882	    -10.32285228	     -6.93654296	     32.12241662	     45.73988536	      0.00000000	      0.00000000	     49.75743804	    -26.59701635	     -6.56511992	     62.32727370	     48.23595413	      0.00000000	      0.00000000
     35.97071429	     -6.43644116	     -3.86007344	    -11.86179030	      1.07166015	      0.92321612	      0.41161165	     26.47192702	     -3.89421232	     -4.98328263	     13.60248624	     13.60248624	      1.64847074	     12.99866969	     11.86223984	     11.07064968	     -3.41596594	    -11.59858035	     22.62396562	     22.62396562	     19.01420347	    -14.88264617	      2.63525885	    -10.52036630	      5.56443192	      1.14455484	    -22.85447391	    -10.23939603	     -6.62843751	     32.29726909	     45.71902143	      0.00000000	      0.00000000	     50.09516746	    -26.45514562	     -6.75539402	     62.77643659	     48.25278519	      0.00000000	      0.00000000
     35.99428571	     -6.56438449	     -3.58256934	    -11.91223728	      1.07271053	      0.92223054	      0.41455753	     26.40707180	     -3.97748453	     -4.95828113	     13.36938566	     13.36938566	      1.29468498	     13.39020084	     11.68072581	     10.74013379	     -3.25835637	    -11.69243178	     22.49210847	     22.49210847	     19.29458751	    -14.80283962	      2.46917634	    -10.29822876	      5.39735356	      1.13575232	    -22.34027632	    -10.17918960	     -6.44659545	     32.47862561	     45.70533692	      0.00000000	      0.00000000	     50.37432873	    -26.30021278	     -6.89026594	     63.11036398	     48.26630280	      0.00000000	      0.00000000
     36.01785714	     -6.56493041	     -3.38876677	    -11.88179145	      1.07431306	      0.92147670	      0.41779377	     26.18620063	     -4.03422686	     -4.96463356	     13.53985006	     13.53985006	      1.08426090	     13.65287662	     10.58014904	     10.14893545	     -3.15668782	    -11.71823557	     22.21611049	     22.21611049	     19.56878193	    -14.62169417	      2.32534793	    -10.21786472	      5.32356366	      1.20637513	    -21.87671714	    -10.22371856	     -6.11315484	     32.57584941	     45.68674082	      0.00000000	      0.00000000	     50.34364258	    -26.02509652	     -7.23668279	     63.61702084	     48.29218949	      0.00000000	      0.00000000
     36.04142857	     -6.63653133	     -3.20204797	    -11.75232017	      1.07622246	      0.92050057	      0.42142165	     25.77794413	     -3.99049799	     -4.71748036	     13.40231114	     13.40231114	     -0.60599805	     13.26497213	      4.45209357	      9.72471580	     -3.11575642	    -11.63462505	     22.13860654	     22.13860654	     19.80064919	    -14.57555200	      2.06231965	    -10.02092513	      5.26232161	      0.74782891	    -21.22327668	    -10.64796302	     -4.29869016	     32.56487290	     45.59947429	      0.00000000	      0.00000000	     49.57690601	    -26.01698979	     -8.73285140	     64.88369250	     48.36753370	      0.00000000	      0.00000000
